<svg width="241" height="76" viewBox="0 0 241 76" fill="none" xmlns="http://www.w3.org/2000/svg">
<path d="M22.8674 59.5298C22.7824 59.299 22.669 58.7799 22.5273 58.0012C22.3857 57.1937 22.2156 56.2996 22.0173 55.2614C21.7906 54.2519 21.5922 53.156 21.3656 52.0024C21.1389 50.8488 20.9122 49.8105 20.7138 48.8299C19.382 49.4067 17.8519 50.0989 16.1233 50.8776C14.3948 51.6851 12.8647 52.3773 11.5329 52.983C11.3912 53.5021 11.2778 54.1943 11.1645 55.0595C11.0228 55.8959 10.9095 56.7322 10.7961 57.5686C10.6544 58.405 10.5411 59.1548 10.4561 59.847C10.3427 60.5392 10.2861 61.0006 10.2294 61.2602C6.80071 62.6157 3.40035 64.0577 0 65.5286C0.170018 64.4615 0.45338 62.7887 0.906761 60.4815C1.36014 58.1743 1.87019 55.5786 2.49359 52.6946C3.08865 49.8105 3.74039 46.7822 4.42046 43.581C5.12887 40.4085 5.7806 37.4091 6.43233 34.6115C7.08407 31.814 7.67913 29.3337 8.18918 27.1995C8.69924 25.0653 9.06761 23.5656 9.32263 22.7293C9.77601 22.5274 10.6828 22.1524 12.0996 21.6045C13.5164 21.0565 15.0466 20.4797 16.6617 19.874C18.2769 19.2972 19.8071 18.7493 21.1955 18.2301C22.6123 17.7398 23.5191 17.4226 23.9158 17.3072C24.0575 17.7687 24.2842 18.6627 24.6526 19.9894C24.9926 21.3161 25.4176 22.8735 25.871 24.6616C26.3527 26.4785 26.8911 28.4397 27.4578 30.6027C28.0529 32.7658 28.6196 34.9576 29.2147 37.1784C29.7814 39.3991 30.3765 41.5621 30.9432 43.6963C31.4816 45.8017 31.9917 47.7051 32.4167 49.4356C32.8701 51.1372 33.2384 52.5792 33.5218 53.7328C33.8052 54.8864 33.9752 55.6363 34.0319 55.8959C30.2915 57.0495 26.5794 58.2319 22.8674 59.5298ZM13.1764 45.3114C14.1965 44.9365 15.2449 44.5615 16.3217 44.1866C17.3985 43.8117 18.4186 43.4656 19.4103 43.1483C19.127 41.937 18.8153 40.7546 18.5319 39.601C18.2486 38.4473 17.9652 37.3514 17.7102 36.3131C17.4268 35.2749 17.1718 34.3231 16.9451 33.4579C16.6901 32.5927 16.4917 31.8717 16.3217 31.2949C16.1517 32.0447 15.9533 32.91 15.7266 33.9482C15.4999 34.9865 15.2449 36.1401 14.9616 37.3802C14.6782 38.6204 14.3665 39.9182 14.0831 41.2737C13.7714 42.6004 13.4597 43.9559 13.1764 45.3114ZM64.1817 9.00117C64.1817 9.60682 64.125 10.847 64.04 12.6351C63.955 14.452 63.87 16.5862 63.7283 19.0088C63.6149 21.4314 63.4449 24.0271 63.2749 26.7958C63.1049 29.5356 62.9632 32.1889 62.7932 34.7269C62.6232 37.236 62.4531 39.5144 62.3115 41.5044C62.1414 43.4944 62.0281 44.9365 61.9431 45.8305C59.0811 46.4073 56.2475 47.0418 53.3855 47.6763C53.3572 47.0707 53.3289 46.3208 53.3289 45.4267C53.3289 44.5615 53.3855 43.6675 53.4705 42.8023C52.9605 44.3308 52.1387 45.6575 50.977 46.7822C49.8435 47.8782 48.5684 48.7434 47.1516 49.3779C45.7347 50.0412 44.2896 50.4162 42.7311 50.5315C41.2009 50.6757 39.8125 50.5315 38.5657 50.0701C37.3189 49.6086 36.2704 48.8011 35.477 47.6763C34.6836 46.5515 34.2869 45.0518 34.2869 43.1483C34.2869 40.6104 34.6553 38.2455 35.392 36.1113C36.1287 33.9482 37.0638 32.0447 38.1973 30.4297C39.3024 28.7858 40.6059 27.4591 42.051 26.4208C43.4962 25.4114 44.9413 24.7193 46.4148 24.3732C47.86 24.0559 49.2484 24.1136 50.5519 24.5751C51.8554 25.0653 52.9888 25.9306 53.9239 27.2572C53.9239 26.0748 53.9239 24.6616 53.8956 23.0753C53.8673 21.4603 53.8673 19.874 53.8673 18.3167C53.8673 16.7593 53.8673 15.3172 53.8673 14.0194C53.8673 12.7216 53.8673 11.741 53.8673 11.1642C57.2959 10.3855 60.7246 9.6645 64.1817 9.00117ZM42.4194 42.0812C42.6744 43.2349 43.2412 43.9847 44.1479 44.3308C45.0547 44.6481 46.0181 44.6192 47.0099 44.2154C48.03 43.8117 48.9367 43.0618 49.7302 41.9659C50.5519 40.8988 50.9486 39.5144 50.9486 37.8128C50.9486 36.6015 50.6936 35.6786 50.2119 35.1018C49.7302 34.4962 49.1351 34.1501 48.3984 34.0636C47.6899 33.9482 46.9249 34.0924 46.1315 34.4674C45.338 34.8423 44.6296 35.3902 43.9779 36.1113C43.3545 36.8323 42.8728 37.7263 42.5327 38.7357C42.1927 39.774 42.1644 40.8699 42.4194 42.0812ZM91.0728 13.558C91.0444 13.8175 90.8744 14.6251 90.5911 16.0383C90.3077 17.4226 89.9677 19.0954 89.5426 21.0565C89.0892 23.0177 88.6359 25.123 88.1541 27.4014C87.6441 29.651 87.1907 31.814 86.7373 33.8617C86.284 35.9094 85.8872 37.6975 85.5472 39.2549C85.2072 40.7834 84.9521 41.7928 84.8388 42.2543C80.5317 42.7734 76.2246 43.4079 71.9458 44.1001C71.7758 43.6386 71.5208 42.8311 71.1807 41.6198C70.8407 40.4373 70.444 39.053 70.0473 37.4956C69.6506 35.9094 69.2255 34.2655 68.8005 32.4774C68.3754 30.7181 67.9787 29.0165 67.582 27.3726C67.2136 25.7575 66.8736 24.2866 66.5902 23.0177C66.3352 21.7198 66.1085 20.7393 65.9952 20.1048C69.2822 19.4991 72.5692 18.9223 75.8562 18.432C75.9696 19.0377 76.1396 20.1048 76.3379 21.5756C76.5079 23.0465 76.7346 24.6616 76.9613 26.3632C77.2163 28.0936 77.443 29.7952 77.6414 31.4679C77.8681 33.1118 78.0381 34.4674 78.2081 35.4768C78.3781 34.525 78.5765 33.4002 78.8032 32.0736C79.0015 30.7758 79.2282 29.3914 79.4266 27.9494C79.6533 26.5074 79.88 25.0365 80.0783 23.5945C80.305 22.1236 80.475 20.7681 80.6734 19.5568C80.8434 18.3455 80.9851 17.3072 81.0984 16.442C81.2401 15.5768 81.3534 14.9712 81.4385 14.6539C84.6404 14.2501 87.8708 13.8752 91.0728 13.558ZM113.26 28.2955C113.515 28.7569 113.827 29.2472 114.139 29.7952C114.45 30.372 114.762 30.8911 115.074 31.4391C115.385 31.9582 115.64 32.4197 115.895 32.8811C116.122 33.3137 116.292 33.6598 116.434 33.9194C115.952 34.7558 115.3 35.5921 114.422 36.4285C113.572 37.2649 112.552 38.0147 111.362 38.6492C110.171 39.3126 108.84 39.8317 107.394 40.2066C105.921 40.5815 104.362 40.7257 102.662 40.6392C100.594 40.5527 98.7236 40.0047 97.0234 39.053C95.3232 38.0724 93.9631 36.7746 92.9713 35.073C91.9512 33.4002 91.3561 31.4103 91.1578 29.0742C90.9594 26.7092 91.3278 24.1424 92.2912 21.3161C92.8013 19.9029 93.5097 18.6339 94.4165 17.5091C95.3232 16.3843 96.3433 15.4326 97.5051 14.6828C98.6669 13.9041 99.9137 13.3561 101.217 12.9812C102.521 12.6062 103.824 12.462 105.071 12.4909C108.216 12.6062 110.54 13.558 112.098 15.2596C113.657 16.99 114.422 19.2396 114.422 21.9506C114.422 23.3061 114.139 24.5751 113.6 25.7864C113.033 26.9977 112.268 28.0648 111.305 28.9876C110.313 29.9105 109.151 30.6604 107.791 31.2661C106.459 31.8429 104.986 32.1601 103.456 32.2466C102.804 32.3043 102.152 32.2755 101.529 32.2466C100.905 32.1889 100.31 32.0736 99.7153 31.9294C100.65 33.0542 101.812 33.7463 103.229 33.9771C104.618 34.2078 106.006 34.1213 107.366 33.7463C108.698 33.3426 109.945 32.6792 111.022 31.7275C112.127 30.7758 112.863 29.6221 113.26 28.2955ZM103.711 20.1625C102.634 20.3067 101.671 20.7104 100.877 21.3738C100.055 22.0659 99.687 22.9888 99.772 24.1713C99.857 25.2961 100.31 26.0459 101.16 26.4785C101.982 26.9111 102.974 27.0842 104.079 26.9688C105.326 26.8823 106.403 26.4497 107.253 25.6998C108.103 24.95 108.471 23.9406 108.301 22.6427C108.16 21.5468 107.621 20.8546 106.714 20.4797C105.779 20.1336 104.788 20.0471 103.711 20.1625ZM143.325 20.3643C143.693 21.9506 143.863 23.7098 143.92 25.6133C143.948 27.5168 143.892 29.4203 143.722 31.2949C143.552 33.1695 143.297 34.9865 142.985 36.6592C142.673 38.3608 142.333 39.774 141.993 40.8988C138.678 40.6681 135.362 40.4662 132.047 40.3508C132.245 39.4856 132.5 38.4762 132.812 37.2649C133.124 36.0824 133.379 34.8134 133.634 33.5156C133.861 32.1889 134.031 30.8911 134.172 29.5933C134.314 28.2955 134.314 27.113 134.229 26.1036C134.144 25.0653 133.889 24.229 133.492 23.5656C133.095 22.9023 132.5 22.5851 131.707 22.5562C130.772 22.5562 129.893 23.0465 129.1 24.0559C128.307 25.0653 127.712 26.1901 127.315 27.4591C127.202 28.9588 127.088 30.4585 126.975 31.8717C126.861 33.3137 126.748 34.6115 126.635 35.7652C126.55 36.9188 126.465 37.8994 126.38 38.6781C126.323 39.4568 126.295 39.947 126.295 40.1778C123.603 40.1201 120.911 40.1201 118.219 40.1201C118.219 30.7758 118.219 21.4026 118.219 12.0583C121.676 12.0294 125.161 12.0583 128.618 12.1448C128.533 12.6351 128.42 13.9041 128.278 16.0094C129.553 14.4232 130.942 13.3561 132.5 12.8081C134.031 12.2601 135.532 12.2025 136.978 12.6062C138.423 13.01 139.726 13.9041 140.888 15.2019C142.05 16.4997 142.871 18.2301 143.325 20.3643ZM164.832 6.95349C164.775 7.47262 164.719 8.02059 164.634 8.62624C164.549 9.2319 164.435 9.83755 164.322 10.472C164.18 11.0777 164.067 11.6833 163.954 12.2313C163.84 12.8081 163.727 13.2696 163.614 13.6733C161.63 13.3849 159.618 13.1254 157.635 12.8658C157.521 14.7981 157.38 16.817 157.266 18.9223C157.125 21.0277 157.011 23.1042 156.87 25.1807C156.756 27.2572 156.615 29.2472 156.53 31.1795C156.416 33.1118 156.303 34.8134 156.19 36.342C156.105 37.8705 156.02 39.1395 155.963 40.2066C155.935 41.2449 155.906 41.937 155.906 42.2254C152.988 41.8794 150.069 41.591 147.15 41.3026C147.179 40.2355 147.207 38.5915 147.179 36.3997C147.15 34.2078 147.122 31.7275 147.065 28.9588C147.037 26.1901 146.98 23.3061 146.924 20.2778C146.895 17.2496 146.839 14.3943 146.782 11.7122C145.677 11.5968 144.572 11.5103 143.438 11.4238C143.438 9.31842 143.438 7.21306 143.438 5.1077C143.92 5.13654 144.373 5.16538 144.798 5.16538C145.223 5.19422 145.847 5.22306 146.669 5.2519C146.669 3.49263 146.669 1.7622 146.669 0.00292969C147.235 0.0606107 148.029 0.118292 149.049 0.233654C150.097 0.320175 151.174 0.435537 152.307 0.5509C153.469 0.666262 154.574 0.810464 155.679 0.925826C156.756 1.07003 157.663 1.18539 158.343 1.27191C158.343 1.32959 158.343 1.58916 158.315 1.99293C158.286 2.39669 158.258 2.85814 158.258 3.37727C158.23 3.8964 158.201 4.44437 158.173 4.9635C158.173 5.48263 158.145 5.85755 158.145 6.11712C158.57 6.1748 159.108 6.26132 159.76 6.34784C160.412 6.43437 161.063 6.52089 161.715 6.60741C162.367 6.69393 162.99 6.78045 163.585 6.83813C164.152 6.89581 164.577 6.95349 164.832 6.95349ZM186.198 19.2972C186.198 19.6433 186.141 20.5085 186.028 21.8929C185.914 23.3061 185.801 24.9788 185.688 26.94C185.546 28.93 185.433 31.0353 185.291 33.256C185.178 35.4768 185.036 37.5821 184.923 39.5144C184.781 41.4468 184.667 43.1195 184.582 44.5038C184.469 45.917 184.412 46.7534 184.412 47.0418C181.862 46.4938 179.312 45.9747 176.762 45.4844C176.762 43.8405 176.762 42.2254 176.762 40.6104C175.883 42.1966 174.665 43.2637 173.106 43.8117C171.548 44.3885 169.961 44.4173 168.317 43.9559C166.674 43.4656 165.115 42.5139 163.699 41.0141C162.254 39.5433 161.233 37.5244 160.582 34.9865C160.185 33.3137 159.987 31.5545 159.93 29.6798C159.902 27.8052 159.958 25.9594 160.157 24.1424C160.355 22.3543 160.61 20.6239 160.922 19.0088C161.262 17.3938 161.573 16.0094 161.857 14.8558C164.917 15.2884 167.977 15.7499 171.038 16.2978C170.556 17.7398 170.131 19.2396 169.734 20.8258C169.366 22.412 169.054 23.9694 168.856 25.5268C168.629 27.0842 168.516 28.555 168.487 29.9682C168.487 31.3526 168.572 32.6216 168.828 33.7463C169.054 34.8711 169.451 35.794 169.989 36.515C170.556 37.236 171.293 37.6686 172.171 37.8417C172.766 37.9282 173.333 37.8417 173.843 37.5244C174.353 37.2072 174.806 36.7169 175.175 36.1113C175.572 35.4768 175.883 34.7558 176.138 33.9482C176.393 33.1118 176.592 32.2466 176.705 31.3814C176.705 29.7375 176.705 28.1224 176.677 26.565C176.648 24.9788 176.648 23.5656 176.62 22.2678C176.592 20.97 176.592 19.874 176.592 18.98C176.592 18.0859 176.592 17.5091 176.592 17.3072C179.794 17.9129 182.996 18.5762 186.198 19.2972ZM215.412 37.784C214.194 38.0147 213.06 38.2743 211.984 38.5627C211.02 38.7646 210.028 38.9953 208.98 39.2549C207.932 39.5144 207.053 39.7163 206.288 39.9182C206.458 38.9665 206.486 38.0436 206.373 37.1495C206.288 36.2555 206.09 35.4479 205.806 34.7269C205.551 34.0347 205.211 33.4291 204.786 32.91C204.361 32.4197 203.936 32.1024 203.483 31.9294C202.831 31.6987 202.236 31.6987 201.641 31.9294C201.074 32.1601 200.536 32.535 200.054 33.0542C199.572 33.5733 199.119 34.2078 198.751 34.9576C198.382 35.7075 198.099 36.515 197.929 37.3802C197.816 38.9088 197.674 40.4085 197.532 41.8505C197.39 43.2925 197.249 44.6192 197.192 45.7728C197.107 46.9553 197.022 47.9359 196.937 48.6857C196.852 49.4356 196.795 49.897 196.795 50.0412C194.103 49.3202 191.383 48.6569 188.635 48.0224C188.691 47.4167 188.72 46.3496 188.748 44.7923C188.748 43.2349 188.776 41.4468 188.805 39.4856C188.833 37.5244 188.833 35.4479 188.861 33.256C188.89 31.093 188.89 29.0453 188.861 27.1707C188.833 25.2961 188.833 23.681 188.833 22.3543C188.833 21.0277 188.805 20.2201 188.776 19.9606C192.29 20.7969 195.775 21.6622 199.261 22.6139C199.204 22.9023 199.147 23.508 199.062 24.402C198.977 25.2961 198.892 26.3632 198.807 27.661C199.544 26.5074 200.422 25.671 201.471 25.1519C202.519 24.6039 203.624 24.3732 204.815 24.4308C206.005 24.4885 207.223 24.8346 208.413 25.4691C209.632 26.1036 210.709 26.9688 211.7 28.1224C212.664 29.2472 213.514 30.6316 214.194 32.2755C214.874 33.9194 215.271 35.7652 215.412 37.784ZM238.025 52.3196C238.251 52.8676 238.535 53.5021 238.846 54.1943C239.13 54.8864 239.442 55.5786 239.725 56.2131C240.008 56.8764 240.235 57.4532 240.462 58.0012C240.688 58.5492 240.858 58.9818 241 59.299C240.547 59.9335 239.923 60.4527 239.101 60.9429C238.308 61.4044 237.345 61.7216 236.211 61.8658C235.106 62.01 233.859 61.9524 232.471 61.7216C231.082 61.4621 229.58 60.9429 227.994 60.1354C226.038 59.1548 224.225 57.8282 222.61 56.1266C220.966 54.4538 219.663 52.5504 218.699 50.445C217.736 48.3396 217.141 46.0612 216.971 43.6386C216.772 41.216 217.141 38.7934 218.048 36.3997C218.558 35.1884 219.238 34.2078 220.088 33.4579C220.966 32.7369 221.958 32.2178 223.063 31.9582C224.168 31.6987 225.358 31.6698 226.605 31.8717C227.852 32.0447 229.07 32.4485 230.261 33.0253C233.236 34.4674 235.446 36.3997 236.92 38.7934C238.365 41.1872 239.101 43.754 239.101 46.465C239.101 47.8205 238.846 48.9741 238.308 49.9259C237.798 50.9064 237.061 51.6563 236.155 52.1466C235.248 52.6657 234.143 52.9253 232.867 52.9541C231.592 52.9541 230.204 52.6657 228.73 52.0889C228.107 51.8582 227.512 51.5698 226.917 51.2525C226.322 50.9353 225.727 50.5604 225.16 50.1566C226.067 51.6851 227.172 52.8676 228.504 53.704C229.836 54.5403 231.139 55.0595 232.442 55.2325C233.718 55.4056 234.879 55.2614 235.899 54.7999C236.948 54.3096 237.656 53.4732 238.025 52.3196ZM228.985 40.1201C227.965 39.774 227.059 39.8028 226.265 40.1201C225.5 40.4373 225.132 41.216 225.217 42.4273C225.302 43.581 225.755 44.5327 226.549 45.3402C227.342 46.1189 228.277 46.6957 229.354 47.0707C230.516 47.5033 231.536 47.5321 232.329 47.1572C233.151 46.7822 233.491 45.8882 233.321 44.5327C233.208 43.4079 232.697 42.4562 231.819 41.7063C230.941 40.9853 230.006 40.4373 228.985 40.1201ZM83.0253 64.1442C83.592 64.0577 84.2437 63.9712 84.9805 63.8847C85.7172 63.7693 86.4823 63.6828 87.2474 63.5963C88.0408 63.5098 88.8342 63.4521 89.5993 63.3655C90.3927 63.3079 91.1011 63.2502 91.7812 63.1637C91.7245 63.7982 91.5545 64.548 91.3278 65.3555C91.0728 66.1631 90.7044 67.0283 90.2227 67.8935C89.7693 68.7876 89.1743 69.6528 88.4658 70.518C87.7574 71.412 86.964 72.1907 86.0289 72.9118C85.1222 73.6328 84.1021 74.2673 82.9403 74.7576C81.7785 75.2767 80.475 75.6228 79.0865 75.7958C76.3379 76.1419 74.1277 76.0265 72.3992 75.4209C70.699 74.7864 69.3955 73.8635 68.5454 72.5657C67.6954 71.2678 67.2136 69.7681 67.1286 67.98C67.0153 66.2208 67.2136 64.3461 67.7237 62.4138C68.2337 60.4815 68.9988 58.578 70.0473 56.6457C71.0957 54.7422 72.3142 53.0118 73.731 51.5121C75.1195 50.0124 76.678 48.7722 78.4065 47.8493C80.1066 46.9265 81.8635 46.465 83.677 46.4938C85.4622 46.5227 86.9073 46.8688 87.9841 47.5321C89.0326 48.1954 89.8543 48.9741 90.4211 49.9259C90.9878 50.8488 91.3278 51.8293 91.4695 52.8388C91.6112 53.877 91.6678 54.7422 91.6395 55.4921C91.0728 55.5498 90.4494 55.6363 89.7693 55.7228C89.0609 55.8093 88.3525 55.9247 87.6441 56.0401C86.9073 56.1266 86.1989 56.2419 85.4905 56.3573C84.7821 56.4727 84.1304 56.5592 83.5353 56.6457C83.4787 55.319 83.167 54.5115 82.5719 54.1654C81.9485 53.8482 81.2684 53.9347 80.475 54.4538C79.6533 54.973 78.8315 55.8959 78.0098 57.2225C77.1597 58.578 76.4513 60.2508 75.9412 62.2696C75.5162 63.7693 75.3745 65.0671 75.5162 66.1342C75.6295 67.2013 75.9129 68.0089 76.3379 68.5857C76.763 69.1625 77.273 69.5086 77.8964 69.5951C78.5198 69.7105 79.1715 69.5663 79.8233 69.2202C80.475 68.8452 81.0984 68.2396 81.6935 67.4032C82.2602 66.5668 82.7136 65.4709 83.0253 64.1442ZM100.169 67.4897C100.764 67.4321 101.472 67.3455 102.266 67.2302C103.059 67.1437 103.852 67.0283 104.618 66.9706C105.354 66.8841 106.063 66.7976 106.686 66.7399C107.309 66.6534 107.791 66.5957 108.075 66.5668C108.075 66.9706 108.046 67.4897 108.018 68.0954C107.99 68.7299 107.961 69.3644 107.933 69.9989C107.876 70.6334 107.848 71.239 107.82 71.8158C107.791 72.3926 107.763 72.8541 107.735 73.229C102.889 73.4309 98.0718 73.7481 93.2263 74.1807C93.2263 65.2979 93.2263 56.3861 93.2263 47.4744C96.06 47.2149 98.8653 46.9841 101.671 46.8111C101.642 47.0418 101.586 47.5321 101.529 48.282C101.472 49.0318 101.387 49.9835 101.302 51.0795C101.217 52.2043 101.104 53.4444 101.019 54.8288C100.934 56.2131 100.82 57.6263 100.735 59.0683C100.622 60.5392 100.537 61.9812 100.424 63.4232C100.31 64.8653 100.225 66.2208 100.169 67.4897ZM128.958 52.435C128.958 52.6657 128.902 53.3002 128.845 54.3385C128.76 55.3767 128.675 56.6457 128.59 58.0877C128.477 59.5586 128.392 61.116 128.307 62.7599C128.193 64.4038 128.108 65.9612 127.995 67.3744C127.91 68.8164 127.825 70.0565 127.74 71.0948C127.683 72.1331 127.627 72.7387 127.627 72.9694C125.728 72.9118 123.83 72.8829 121.959 72.8829C121.959 71.7005 121.959 70.518 121.959 69.3067C121.279 70.6045 120.372 71.5563 119.239 72.1619C118.077 72.7964 116.887 73.0271 115.669 72.9118C114.45 72.7676 113.317 72.2484 112.268 71.3544C111.22 70.4603 110.455 69.1048 109.973 67.3167C109.69 66.1631 109.52 64.8941 109.491 63.5386C109.463 62.1831 109.52 60.8276 109.661 59.4721C109.803 58.1166 110.001 56.8476 110.228 55.6074C110.483 54.3961 110.71 53.329 110.908 52.4638C113.175 52.3773 115.442 52.3485 117.681 52.3196C117.341 53.4444 117.029 54.598 116.745 55.8093C116.462 57.0206 116.235 58.2031 116.065 59.3856C115.924 60.5392 115.839 61.6351 115.81 62.6445C115.81 63.6828 115.895 64.6057 116.065 65.3844C116.235 66.1631 116.519 66.7976 116.944 67.259C117.341 67.7205 117.879 67.9512 118.531 67.9512C118.984 67.9223 119.381 67.7781 119.777 67.4897C120.146 67.1725 120.486 66.7687 120.769 66.2784C121.053 65.7593 121.279 65.1825 121.478 64.548C121.676 63.9135 121.818 63.2502 121.903 62.6157C121.903 61.4044 121.903 60.2219 121.874 59.0683C121.874 57.9147 121.846 56.8764 121.818 55.9535C121.818 55.0018 121.818 54.1943 121.818 53.5309C121.818 52.8964 121.818 52.4638 121.818 52.3196C124.198 52.3196 126.578 52.3485 128.958 52.435ZM146.272 65.3267C146.442 65.6728 146.669 66.0766 146.895 66.4803C147.15 66.9129 147.377 67.3455 147.575 67.7493C147.802 68.1531 148 68.528 148.17 68.8741C148.34 69.2202 148.482 69.4797 148.567 69.6816C148.227 70.2584 147.745 70.8064 147.122 71.3544C146.47 71.9023 145.733 72.3638 144.883 72.7387C144.005 73.1136 143.042 73.402 141.965 73.5462C140.888 73.6905 139.755 73.6616 138.508 73.4597C137.006 73.2002 135.617 72.6522 134.371 71.787C133.124 70.9218 132.132 69.8258 131.395 68.4992C130.659 67.1725 130.205 65.644 130.063 63.9135C129.922 62.1831 130.205 60.3373 130.885 58.3761C131.282 57.3667 131.792 56.5015 132.472 55.7517C133.124 55.0018 133.889 54.425 134.739 53.9635C135.589 53.5021 136.496 53.2137 137.459 53.0695C138.423 52.9253 139.358 52.8964 140.265 53.0406C142.56 53.3867 144.288 54.2808 145.422 55.6651C146.555 57.0783 147.122 58.7799 147.122 60.7699C147.122 61.7505 146.895 62.6734 146.499 63.5098C146.102 64.3461 145.535 65.0671 144.827 65.6728C144.118 66.2496 143.268 66.711 142.276 67.0283C141.285 67.3455 140.208 67.4609 139.074 67.3744C138.621 67.3455 138.139 67.2879 137.686 67.2013C137.233 67.086 136.779 66.9706 136.326 66.7976C137.034 67.7205 137.884 68.3261 138.904 68.6145C139.953 68.9029 140.945 68.9894 141.936 68.8164C142.928 68.6145 143.835 68.2396 144.628 67.6339C145.422 67.0283 145.988 66.2496 146.272 65.3267ZM139.273 58.578C138.479 58.578 137.799 58.7799 137.176 59.2125C136.581 59.6163 136.326 60.2796 136.382 61.1448C136.439 61.9812 136.779 62.5869 137.403 62.9618C138.026 63.3655 138.734 63.5674 139.556 63.5963C140.463 63.6251 141.228 63.3944 141.88 62.9329C142.503 62.4426 142.758 61.7216 142.616 60.7699C142.531 59.9624 142.135 59.3856 141.455 59.0683C140.803 58.7222 140.066 58.5492 139.273 58.578ZM162.622 65.4709C164.577 66.0477 166.051 66.8841 167.014 67.9223C168.006 68.9606 168.346 70.345 168.091 72.0465C167.949 73.0271 167.467 73.8058 166.702 74.3826C165.909 74.9306 164.945 75.3055 163.812 75.5074C162.679 75.7093 161.403 75.7381 160.015 75.5651C158.655 75.4209 157.295 75.0748 155.935 74.5845C154.574 74.0942 153.328 73.4309 152.137 72.6234C150.947 71.8158 149.984 70.8352 149.247 69.6528C149.502 68.9894 149.842 68.2108 150.267 67.3455C150.721 66.4515 151.146 65.6728 151.542 65.0383C152.534 66.9418 153.668 68.355 154.999 69.2202C156.36 70.1142 157.663 70.691 158.938 70.9506C159.703 71.066 160.27 71.066 160.695 70.9506C161.092 70.8352 161.318 70.6622 161.375 70.4315C161.403 70.2296 161.262 69.97 160.95 69.7105C160.61 69.4509 160.072 69.2202 159.278 69.0183C158.711 68.9029 158.088 68.701 157.436 68.4415C156.785 68.1531 156.133 67.807 155.453 67.4032C154.801 66.9995 154.178 66.5092 153.611 65.9612C153.016 65.4132 152.534 64.7787 152.166 64.0289C151.627 63.0195 151.372 61.9235 151.372 60.7411C151.401 59.5586 151.684 58.4627 152.279 57.5109C152.846 56.5592 153.753 55.7805 154.971 55.2325C156.161 54.7134 157.72 54.598 159.59 54.9153C160.638 55.1172 161.63 55.5209 162.622 56.1266C163.585 56.7034 164.464 57.3956 165.257 58.1743C166.051 58.9529 166.731 59.7605 167.269 60.5969C167.779 61.4044 168.147 62.1254 168.346 62.7022C168.091 62.8176 167.722 62.9618 167.297 63.1637C166.844 63.3367 166.334 63.5674 165.824 63.7982C165.314 64.0289 164.804 64.2596 164.265 64.4903C163.755 64.6922 163.302 64.9229 162.934 65.096C162.622 64.1731 162.225 63.3944 161.687 62.7599C161.177 62.1542 160.667 61.664 160.157 61.3179C159.618 61.0006 159.137 60.8276 158.683 60.7987C158.23 60.7987 157.918 60.9141 157.72 61.2025C157.465 61.5774 157.408 61.9524 157.55 62.3561C157.691 62.7311 157.975 63.106 158.428 63.4809C158.853 63.8558 159.448 64.2019 160.157 64.548C160.893 64.8941 161.715 65.2113 162.622 65.4709Z" fill="#FF7E00"/>
</svg>
