<svg width="35" height="35" viewBox="0 0 35 35" fill="none" xmlns="http://www.w3.org/2000/svg">
<path d="M13.4896 10.2083C11.6804 10.2083 10.2083 11.6803 10.2083 13.4896C10.2083 15.2989 11.6804 16.7708 13.4896 16.7708C15.2989 16.7708 16.7708 15.2989 16.7708 13.4896C16.7708 11.6803 15.2989 10.2083 13.4896 10.2083ZM13.4896 15.5835C12.335 15.5834 11.3957 14.6442 11.3957 13.4896C11.3957 12.335 12.335 11.3956 13.4896 11.3956C14.6442 11.3956 15.5835 12.335 15.5835 13.4896C15.5835 14.6442 14.6442 15.5835 13.4896 15.5835Z" fill="#002D74"/>
<path d="M21.5104 18.2292C19.7011 18.2292 18.2292 19.7011 18.2292 21.5104C18.2292 23.3197 19.7011 24.7917 21.5104 24.7917C23.3196 24.7917 24.7917 23.3197 24.7917 21.5104C24.7917 19.7011 23.3196 18.2292 21.5104 18.2292ZM21.5104 23.6043C20.3558 23.6043 19.4165 22.665 19.4165 21.5103C19.4165 20.3557 20.3558 19.4164 21.5104 19.4164C22.665 19.4164 23.6043 20.3557 23.6043 21.5103C23.6043 22.665 22.665 23.6043 21.5104 23.6043Z" fill="#002D74"/>
<path d="M21.6855 13.3145C21.4328 13.0619 21.0232 13.0618 20.7704 13.3145L13.3145 20.7705C13.0618 21.0232 13.0618 21.4328 13.3145 21.6855C13.4409 21.8119 13.6064 21.875 13.7721 21.875C13.9376 21.875 14.1033 21.8119 14.2296 21.6855L21.6856 14.2295C21.9382 13.9768 21.9382 13.5672 21.6855 13.3145Z" fill="#002D74"/>
<path d="M33.8524 17.5C33.8524 16.9612 34.1234 16.3126 34.3856 15.6855C34.7741 14.7559 35.1758 13.7947 34.9189 12.8334C34.6513 11.8324 33.803 11.1891 32.9826 10.567C32.4341 10.151 31.916 9.75814 31.6642 9.32287C31.4048 8.87461 31.3207 8.22029 31.2317 7.52757C31.1018 6.51628 30.9674 5.47054 30.2485 4.75149C29.5294 4.03245 28.4837 3.89815 27.4725 3.7682C26.7797 3.67917 26.1255 3.59517 25.6771 3.33579C25.2419 3.08395 24.8489 2.56586 24.433 2.01733C23.8109 1.19693 23.1677 0.348699 22.1667 0.0811009C21.2053 -0.17585 20.2441 0.225882 19.3146 0.614453C18.6875 0.876602 18.039 1.14764 17.5 1.14764C16.9611 1.14764 16.3126 0.876602 15.6855 0.614453C14.7559 0.225966 13.795 -0.17585 12.8334 0.0811009C11.8324 0.348615 11.1891 1.19693 10.567 2.01733C10.1511 2.56586 9.75822 3.08395 9.32287 3.33579C8.87453 3.59517 8.2203 3.67917 7.5275 3.7682C6.51622 3.89815 5.47057 4.03245 4.75153 4.75149C4.03258 5.47054 3.89819 6.5162 3.76825 7.52749C3.67922 8.22021 3.59522 8.87461 3.33576 9.32287C3.08401 9.75814 2.56583 10.151 2.01731 10.567C1.197 11.189 0.34878 11.8324 0.081101 12.8333C-0.175764 13.7947 0.225965 14.7558 0.614364 15.6854C0.87651 16.3125 1.14754 16.9611 1.14754 17.5C1.14754 18.0388 0.87651 18.6874 0.614364 19.3145C0.225881 20.2441 -0.175848 21.2053 0.081101 22.1666C0.348697 23.1676 1.197 23.8109 2.0174 24.433C2.56592 24.849 3.08401 25.2419 3.33584 25.6771C3.59522 26.1254 3.67931 26.7797 3.76825 27.4724C3.89819 28.4837 4.03258 29.5295 4.75153 30.2485C5.47057 30.9676 6.5163 31.1019 7.5275 31.2318C8.2203 31.3208 8.87453 31.4048 9.32287 31.6642C9.75805 31.916 10.151 32.4341 10.5669 32.9827C11.189 33.8031 11.8322 34.6514 12.8333 34.9189C13.7944 35.1758 14.7558 34.7741 15.6853 34.3855C16.3124 34.1234 16.961 33.8524 17.5 33.8524C18.0389 33.8524 18.6874 34.1234 19.3146 34.3855C20.0399 34.6888 20.7845 35 21.5334 35C21.7443 35 21.9554 34.9753 22.1665 34.9189C23.1676 34.6514 23.8109 33.803 24.433 32.9827C24.849 32.4341 25.2419 31.916 25.6771 31.6642C26.1254 31.4048 26.7797 31.3208 27.4724 31.2318C28.4837 31.1019 29.5294 30.9675 30.2484 30.2485C30.9673 29.5295 31.1018 28.4837 31.2317 27.4724C31.3207 26.7797 31.4047 26.1254 31.664 25.6771C31.9159 25.2419 32.434 24.849 32.9825 24.433C33.8029 23.811 34.6511 23.1676 34.9188 22.1667C35.1757 21.2053 34.774 20.2442 34.3855 19.3146C34.1234 18.6875 33.8524 18.0389 33.8524 17.5ZM33.2254 19.7995C33.5468 20.5684 33.8504 21.2947 33.7041 21.8419C33.548 22.4263 32.9043 22.9143 32.2229 23.431C31.5994 23.904 30.9545 24.3929 30.5758 25.0474C30.19 25.7144 30.0856 26.5267 29.9846 27.3121C29.8768 28.1512 29.7751 28.9436 29.3593 29.3593C28.9437 29.7749 28.1513 29.8767 27.3124 29.9845C26.5269 30.0854 25.7145 30.1898 25.0475 30.5757C24.3931 30.9544 23.9041 31.5992 23.4312 32.2227C22.9145 32.9041 22.4265 33.5477 21.842 33.704C21.2949 33.8503 20.5686 33.5466 19.7998 33.2253C19.0582 32.9154 18.2914 32.5948 17.5002 32.5948C16.709 32.5948 15.9422 32.9153 15.2006 33.2253C14.4317 33.5467 13.7055 33.8501 13.1583 33.704C12.5739 33.5478 12.0859 32.9041 11.5692 32.2228C11.0963 31.5992 10.6074 30.9544 9.95296 30.5758C9.2859 30.1898 8.47364 30.0855 7.68812 29.9846C6.84912 29.8768 6.05673 29.775 5.64109 29.3594C5.22536 28.9437 5.12358 28.1512 5.01577 27.3122C4.91484 26.5267 4.81047 25.7145 4.4245 25.0474C4.04582 24.393 3.40106 23.904 2.77751 23.4311C2.09612 22.9144 1.45244 22.4263 1.29635 21.842C1.15006 21.2948 1.45362 20.5685 1.77495 19.7996C2.08488 19.058 2.40546 18.2913 2.40546 17.5C2.40546 16.7088 2.08497 15.9421 1.77495 15.2005C1.45362 14.4316 1.15006 13.7053 1.29635 13.1581C1.45244 12.5738 2.09612 12.0857 2.77743 11.569C3.40098 11.096 4.04591 10.607 4.42441 9.95264C4.81038 9.28557 4.91484 8.4733 5.01577 7.68769C5.1235 6.84877 5.22536 6.05637 5.641 5.64072C6.05665 5.22507 6.84904 5.1233 7.68804 5.01549C8.47347 4.91455 9.28582 4.81018 9.95288 4.42429C10.6074 4.04561 11.0964 3.40084 11.5692 2.7772C12.0859 2.0958 12.5739 1.45221 13.1583 1.29602C13.7056 1.14982 14.4318 1.45338 15.2007 1.77472C15.9423 2.08465 16.709 2.40515 17.5002 2.40515C18.2914 2.40515 19.0582 2.08465 19.7998 1.77472C20.5688 1.4533 21.295 1.14982 21.8421 1.29602C22.4265 1.45221 22.9145 2.0958 23.4312 2.7772C23.9041 3.40084 24.3931 4.04569 25.0475 4.42429C25.7145 4.81026 26.5268 4.91463 27.3124 5.01549C28.1513 5.1233 28.9438 5.22507 29.3593 5.64072C29.7751 6.05637 29.8768 6.84885 29.9846 7.68786C30.0856 8.47339 30.19 9.28565 30.5759 9.95272C30.9546 10.6072 31.5994 11.0961 32.2229 11.569C32.9043 12.0858 33.5479 12.5738 33.7041 13.1582C33.8504 13.7054 33.5468 14.4316 33.2254 15.2005C32.9155 15.9421 32.5949 16.7089 32.5949 17.5C32.5949 18.2912 32.9154 19.058 33.2254 19.7995Z" fill="#002D74"/>
<path d="M17.5 4.375C10.2628 4.375 4.375 10.2629 4.375 17.5C4.375 24.7371 10.2628 30.625 17.5 30.625C24.7372 30.625 30.625 24.7371 30.625 17.5C30.625 10.2629 24.7372 4.375 17.5 4.375ZM17.5 29.3489C10.9666 29.3489 5.65121 24.0335 5.65121 17.5001C5.65121 10.9666 10.9666 5.6513 17.5 5.6513C24.0335 5.6513 29.3488 10.9666 29.3488 17.5001C29.3488 24.0335 24.0335 29.3489 17.5 29.3489Z" fill="#002D74"/>
</svg>
